<?xml version="1.0" encoding="UTF-8"?>
<svg width="14px" height="14px" viewBox="0 0 14 14" version="1.1" xmlns="http://www.w3.org/2000/svg" xmlns:xlink="http://www.w3.org/1999/xlink">
    <!-- Generator: Sketch 51.3 (57544) - http://www.bohemiancoding.com/sketch -->
    <title>Group</title>
    <desc>Created with Sketch.</desc>
    <defs></defs>
    <g id="Design" stroke="none" stroke-width="1" fill="none" fill-rule="evenodd">
        <g id="Buy-List" transform="translate(-264.000000, -91.000000)" fill="#30D0F0" fill-rule="nonzero">
            <g id="Group" transform="translate(264.000000, 91.000000)">
                <path d="M0.480769231,2.50847458 L3.16107998,2.50847458 C3.37434921,3.36583051 4.11338767,4 4.98999023,4 C5.8665928,4 6.60563126,3.36583051 6.81890049,2.50847458 L13.5192308,2.50847458 C13.7847436,2.50847458 14,2.28081356 14,2 C14,1.71918644 13.7847436,1.49152542 13.5192308,1.49152542 L6.81883639,1.49152542 C6.60556716,0.634169492 5.8665287,0 4.98992613,0 C4.11332357,0 3.37428511,0.634169492 3.16101588,1.49152542 L0.480769231,1.49152542 C0.21525641,1.49152542 0,1.71918644 0,2 C0,2.28081356 0.21525641,2.50847458 0.480769231,2.50847458 Z M5,1 C5.55137931,1 6,1.44862069 6,2 C6,2.55137931 5.55137931,3 5,3 C4.44862069,3 4,2.55137931 4,2 C4,1.44862069 4.44862069,1 5,1 Z" id="Shape"></path>
                <path d="M13.5191687,6.49152542 L10.7689018,6.49152542 C10.5556335,5.63416949 9.81659819,5 8.93999937,5 C8.06340056,5 7.32436525,5.63416949 7.11109693,6.49152542 L0.480767176,6.49152542 C0.21525549,6.49152542 0,6.71918644 0,7 C0,7.28081356 0.21525549,7.50847458 0.480767176,7.50847458 L7.11116104,7.50847458 C7.32442936,8.36576271 8.06346466,9 8.94006348,9 C9.81666229,9 10.5556976,8.36576271 10.7689659,7.50847458 L13.5192328,7.50847458 C13.7847445,7.50847458 14,7.28081356 14,7 C14,6.71918644 13.7846804,6.49152542 13.5191687,6.49152542 Z M9,8 C8.44862069,8 8,7.55137931 8,7 C8,6.44862069 8.44862069,6 9,6 C9.55137931,6 10,6.44862069 10,7 C10,7.55137931 9.55137931,8 9,8 Z" id="Shape"></path>
                <path d="M13.5192308,11.4915254 L6.78294772,11.4915254 C6.56967849,10.6342373 5.83064002,10 4.95403746,10 C4.0774349,10 3.33839643,10.6342373 3.1251272,11.4915254 L0.480769231,11.4915254 C0.21525641,11.4915254 0,11.7191864 0,12 C0,12.2808136 0.21525641,12.5084746 0.480769231,12.5084746 L3.12519131,12.5084746 C3.33846054,13.3658305 4.077499,14 4.95410156,14 C5.83070413,14 6.56974259,13.3658305 6.78301182,12.5084746 L13.5192308,12.5084746 C13.7847436,12.5084746 14,12.2808136 14,12 C14,11.7191864 13.7847436,11.4915254 13.5192308,11.4915254 Z M5,13 C4.44862069,13 4,12.5513793 4,12 C4,11.4486207 4.44862069,11 5,11 C5.55137931,11 6,11.4486207 6,12 C6,12.5513793 5.55137931,13 5,13 Z" id="Shape"></path>
            </g>
        </g>
    </g>
</svg>