<?xml version="1.0" encoding="UTF-8"?>
<svg width="10px" height="16px" viewBox="0 0 10 16" version="1.1" xmlns="http://www.w3.org/2000/svg" xmlns:xlink="http://www.w3.org/1999/xlink">
    <!-- Generator: Sketch 51.3 (57544) - http://www.bohemiancoding.com/sketch -->
    <title>Shape</title>
    <desc>Created with Sketch.</desc>
    <defs></defs>
    <g id="Design" stroke="none" stroke-width="1" fill="none" fill-rule="evenodd">
        <g id="Home" transform="translate(-26.000000, -581.000000)" fill="#FFFFFF" fill-rule="nonzero">
            <path d="M33.61,581 L28.4,581 C27.7581692,581.005282 27.1447271,581.265326 26.694635,581.72292 C26.244543,582.180513 25.9946737,582.79817 26,583.44 L26,594.56 C25.9946737,595.20183 26.244543,595.819487 26.694635,596.27708 C27.1447271,596.734674 27.7581692,596.994718 28.4,597 L33.61,597 C34.2509296,596.994731 34.8633587,596.734366 35.3118639,596.276477 C35.7603691,595.818589 36.0080003,595.200901 36,594.56 L36,583.44 C36.0080003,582.799099 35.7603691,582.181411 35.3118639,581.723523 C34.8633587,581.265634 34.2509296,581.005269 33.61,581 Z M35,584.42 L35,592.13 L27,592.13 L27,584.42 L35,584.42 Z M28.4,582 L33.61,582 C34.3848106,582.010971 35.0055733,582.645132 35.0000372,583.42 L26.9999642,583.42 C26.9973384,583.046042 27.143345,582.686344 27.4058979,582.42004 C27.6684509,582.153736 28.0260418,582.002643 28.4,582 Z M33.61,596 L28.4,596 C28.0233806,595.994733 27.6642833,595.840051 27.4017244,595.56999 C27.1391655,595.29993 26.9946582,594.936618 27,594.56 L27,593.13 L35,593.13 L35,594.56 C35.0111658,595.340441 34.3903479,595.98359 33.61,596 Z M32.11,594.06 L30.17,594.06 C29.8960915,594.06532 29.6753201,594.286092 29.67,594.56 C29.67,594.836142 29.8938576,595.06 30.17,595.06 L32.11,595.06 C32.3861424,595.06 32.61,594.836142 32.61,594.56 C32.6046799,594.286092 32.3839085,594.06532 32.11,594.06 Z" id="Shape"></path>
        </g>
    </g>
</svg>