<?xml version="1.0" encoding="UTF-8"?>
<svg width="10px" height="16px" viewBox="0 0 10 16" version="1.1" xmlns="http://www.w3.org/2000/svg" xmlns:xlink="http://www.w3.org/1999/xlink">
    <!-- Generator: Sketch 52.1 (67048) - http://www.bohemiancoding.com/sketch -->
    <title>Shape</title>
    <desc>Created with Sketch.</desc>
    <g id="Buy" stroke="none" stroke-width="1" fill="none" fill-rule="evenodd">
        <g id="Buy-Map" transform="translate(-323.000000, -600.000000)" fill="#30D0F0" fill-rule="nonzero">
            <path d="M332.903322,609.035308 C332.740424,608.145813 332.254231,607.680182 331.875046,607.44613 C331.505118,607.217883 331.120927,607.129992 330.821154,607.100319 C330.434575,606.622915 329.878286,606.362254 329.237054,606.362254 C329.096337,606.362254 328.953059,606.374672 328.809081,606.399345 C328.428499,605.997791 327.905512,605.778898 327.316329,605.778898 C327.3055,605.778898 327.294613,605.779005 327.283668,605.779113 L327.281106,603.798485 C327.280465,603.343497 327.09096,602.937857 326.747464,602.656231 C326.511209,602.462495 326.215278,602.337352 325.895419,602.292305 C325.965458,601.894889 326.110133,601.615306 326.328224,601.458555 C326.600052,601.263153 327.035361,601.23348 327.62204,601.37061 C328.807044,601.647344 330.013006,601.731633 330.804969,600.485792 C330.902603,600.332212 330.846887,600.134553 330.680495,600.04435 C330.514161,599.95431 330.300088,600.0057 330.202395,600.15928 C329.733086,600.897668 329.102683,601.050764 327.793264,600.745217 C326.986864,600.556857 326.349649,600.625611 325.899029,600.949542 C325.506395,601.231813 325.271071,601.685511 325.185197,602.326117 C324.901085,602.394763 324.641309,602.5284 324.438937,602.71547 C324.133925,602.997472 323.972947,603.373224 323.973529,603.80214 L323.977139,606.53352 L323.979701,608.47469 C323.537871,608.692777 323.232393,609.03805 323.090802,609.482609 C322.872712,610.167403 323.046556,611.049372 323.622348,612.178886 C324.0013,612.922219 324.45617,613.572502 324.67397,613.869018 L324.770499,615.055405 C324.813581,615.585114 325.298085,616 325.873296,616 L330.452099,615.994786 C331.004546,615.994141 331.475368,615.612314 331.54727,615.106581 L331.725131,613.856063 C332.806154,612.291182 333.20263,610.669427 332.903322,609.035308 Z M331.092469,613.492681 C331.05969,613.540495 331.037992,613.594602 331.030159,613.651115 L330.84439,614.985445 C330.817876,615.175774 330.645973,615.322994 330.442392,615.323212 L325.880947,615.333333 C325.668142,615.333333 325.491655,615.174133 325.4757,614.974448 L325.373591,613.69138 C325.368195,613.623761 325.344119,613.557893 325.303333,613.502036 C324.885787,612.929954 322.554502,609.591285 324.442423,608.847036 C324.592687,608.787842 324.690038,608.648665 324.689864,608.495099 C324.688646,607.586234 324.684875,604.880488 324.683541,603.876212 C324.682786,603.277213 325.159161,602.977468 325.635536,602.977468 C326.110983,602.977468 326.586488,603.276119 326.587242,603.873914 L326.590201,606.090084 C326.590491,606.304321 326.775448,606.472275 326.994751,606.472275 C327.015753,606.472275 327.037103,606.470743 327.058628,606.467515 C327.139271,606.455534 327.226818,606.44782 327.318542,606.44782 C327.661247,606.44782 328.06104,606.556033 328.367368,606.956222 C328.443486,607.055572 328.565263,607.110007 328.691623,607.110007 C328.727071,607.110007 328.762984,607.105685 328.798316,607.096932 C328.91841,607.066952 329.068732,607.041512 329.232513,607.041512 C329.590418,607.041512 330.012663,607.163238 330.324038,607.625849 C330.386464,607.718634 330.492519,607.776351 330.608958,607.780345 C331.020297,607.79435 331.975251,607.750741 332.199544,609.001422 C332.407359,610.160577 332.311632,611.715763 331.092469,613.492681 Z" id="Shape"></path>
        </g>
    </g>
</svg>