<?xml version="1.0" encoding="UTF-8"?>
<svg width="16px" height="16px" viewBox="0 0 16 16" version="1.1" xmlns="http://www.w3.org/2000/svg" xmlns:xlink="http://www.w3.org/1999/xlink">
    <!-- Generator: Sketch 51.3 (57544) - http://www.bohemiancoding.com/sketch -->
    <title>Shape</title>
    <desc>Created with Sketch.</desc>
    <defs></defs>
    <g id="Design" stroke="none" stroke-width="1" fill="none" fill-rule="evenodd">
        <g id="Home" transform="translate(-181.000000, -581.000000)" fill="#FFFFFF" fill-rule="nonzero">
            <path d="M189,597 C187.52451,596.999665 186.077855,596.591279 184.82,595.82 L181.23,596.93 L181.47,596.06 C181.67,595.33 182.02,594.06 182.24,593.28 C180.28662,590.195296 180.669629,586.179409 183.170887,583.519559 C185.672145,580.859708 189.656939,580.230851 192.855758,581.991149 C196.054578,583.751446 197.655699,587.454209 196.747216,590.990556 C195.838732,594.526903 192.651177,596.99946 189,597 Z M184.86,594.81 C185.008496,594.809731 185.154061,594.851321 185.28,594.93 C188.309397,596.821482 192.276984,596.12909 194.486655,593.323327 C196.696326,590.517563 196.439457,586.498213 193.890601,583.996558 C191.341744,581.494902 187.318295,581.3132 184.554321,583.574925 C181.790346,585.836649 181.172229,589.816484 183.12,592.81 C183.25506,593.005888 183.291974,593.253212 183.22,593.48 L182.67,595.48 L184.86,594.81 Z M191.18,593.78 C190.912269,593.778457 190.644966,593.758409 190.38,593.72 C187,593.2 184.79,589.84 184.14,588.13 C183.751812,587.038567 183.907852,585.827402 184.56,584.87 C184.802224,584.423344 185.245631,584.121529 185.75,584.06 C186.91,584.06 187.46,586.41 187.46,586.43 C187.46,586.89 187.26,587.24 186.69,587.82 C186.8,589.08 189.69,591.06 190.35,591.16 C190.49,591.16 190.83,590.69 190.99,590.46 C191.28,590.06 191.55,589.68 191.99,589.68 C192.43,589.68 192.63,589.9 193.16,590.3 L193.5,590.54 C193.94,590.86 194.32,591.13 194.32,591.54 C194.259745,592.118937 193.963011,592.647268 193.5,593 C192.84753,593.533981 192.022538,593.811349 191.18,593.78 Z M185.71,585.05 C185.52131,585.230314 185.362643,585.439619 185.24,585.67 C184.899021,586.317438 184.837601,587.076146 185.07,587.77 C185.66,589.29 187.55,592.28 190.53,592.77 C191.304025,592.941047 192.114329,592.785497 192.77,592.34 C192.991739,592.166939 193.169834,591.94432 193.29,591.69 C193.2,591.61 193.03,591.49 192.9,591.4 L192.56,591.14 C192.41,591.03 192.18,590.87 192.03,590.78 C191.96,590.86 191.87,590.99 191.8,591.08 C191.45,591.58 191.01,592.2 190.32,592.2 C189.63,592.2 185.69,589.73 185.69,587.75 C185.687646,587.532044 185.774327,587.322565 185.93,587.17 C186.43,586.67 186.47,586.51 186.47,586.5 C186.329399,585.965482 186.069567,585.469749 185.71,585.05 Z" id="Shape"></path>
        </g>
    </g>
</svg>