<?xml version="1.0" encoding="UTF-8"?>
<svg width="14px" height="16px" viewBox="0 0 14 16" version="1.1" xmlns="http://www.w3.org/2000/svg" xmlns:xlink="http://www.w3.org/1999/xlink">
    <!-- Generator: Sketch 52.2 (67145) - http://www.bohemiancoding.com/sketch -->
    <title>Fill 1</title>
    <desc>Created with Sketch.</desc>
    <g id="Buy" stroke="none" stroke-width="1" fill="none" fill-rule="evenodd">
        <g id="Buy-Filer_basic" transform="translate(-16.000000, -638.000000)" fill="#FFFFFF">
            <g id="Group-2" transform="translate(0.000000, 622.000000)">
                <path d="M22,28.173913 C19.243,28.173913 17,25.8333913 17,22.9565217 C17,20.0796522 19.243,17.7391304 22,17.7391304 C24.757,17.7391304 27,20.0796522 27,22.9565217 C27,25.8333913 24.757,28.173913 22,28.173913 Z M30,30.5655652 L26.577,26.9947826 C27.463,25.9043478 28,24.4956522 28,22.9565217 C28,19.5036522 25.309,16.6956522 22,16.6956522 C18.691,16.6956522 16,19.5036522 16,22.9565217 C16,26.4093913 18.691,29.2173913 22,29.2173913 C23.475,29.2173913 24.825,28.6570435 25.87,27.7325217 L29.293,31.3043478 L30,30.5655652 Z" id="Fill-1"></path>
            </g>
        </g>
    </g>
</svg>