<?xml version="1.0" encoding="UTF-8"?>
<svg width="300px" height="64px" viewBox="0 0 300 64" version="1.1" xmlns="http://www.w3.org/2000/svg" xmlns:xlink="http://www.w3.org/1999/xlink">
    <!-- Generator: Sketch 51.3 (57544) - http://www.bohemiancoding.com/sketch -->
    <title>Group 29</title>
    <desc>Created with Sketch.</desc>
    <defs>
        <polygon id="path-1" points="0 0.0888 9.9529 0.0888 9.9529 12.7538 0 12.7538"></polygon>
        <polygon id="path-3" points="0 64 300 64 300 0 0 0"></polygon>
    </defs>
    <g id="Design" stroke="none" stroke-width="1" fill="none" fill-rule="evenodd">
        <g id="Home" transform="translate(-30.000000, -128.000000)">
            <g id="Group-29" transform="translate(30.000000, 128.000000)">
                <polygon id="Fill-1" fill="#FFFFFF" points="150.3657 0.0001 136.3657 13.6261 136.3657 32.0001 155.4107 32.0001 157.9327 32.0001 157.9327 29.4801 157.9327 13.6941 155.4107 11.2161 155.4107 29.4801 138.8877 29.4801 138.8877 14.6821 150.3657 3.5331 161.8427 14.6821 161.8427 32.0001 164.3657 32.0001 164.3657 13.6261"></polygon>
                <polygon id="Fill-2" fill="#FFFFFF" points="155.4111 0.5068 155.4111 2.4188 157.9331 4.8968 157.9331 0.5068"></polygon>
                <g id="Group-28">
                    <g id="Group-5" transform="translate(0.000000, 48.000000)">
                        <mask id="mask-2" fill="white">
                            <use xlink:href="#path-1"></use>
                        </mask>
                        <g id="Clip-4"></g>
                        <path d="M7.7589,9.8548 C7.6639,10.0868 7.5329,10.2898 7.3669,10.4618 C7.1999,10.6338 7.0039,10.7718 6.7779,10.8718 C6.5519,10.9728 6.3079,11.0238 6.0469,11.0238 L1.9979,11.0238 L1.9979,7.1528 L6.1719,7.1528 C6.4219,7.1528 6.6529,7.2068 6.8669,7.3128 C7.0809,7.4198 7.2619,7.5628 7.4109,7.7418 C7.5599,7.9198 7.6789,8.1278 7.7679,8.3658 C7.8569,8.6038 7.9019,8.8538 7.9019,9.1148 C7.9019,9.3768 7.8539,9.6238 7.7589,9.8548 Z M1.9979,1.8198 L5.7789,1.8198 C6.2549,1.8198 6.6469,1.9948 6.9569,2.3458 C7.2649,2.6968 7.4199,3.1458 7.4199,3.6928 C7.4199,3.9658 7.3749,4.2158 7.2859,4.4418 C7.1969,4.6678 7.0719,4.8608 6.9119,5.0218 C6.7509,5.1818 6.5669,5.3098 6.3589,5.4048 C6.1509,5.5008 5.9219,5.5468 5.6729,5.5468 L1.9979,5.5468 L1.9979,1.8198 Z M7.5989,6.2608 C8.1809,5.9998 8.6299,5.5988 8.9449,5.0568 C9.2599,4.5158 9.4179,3.9368 9.4179,3.3178 C9.4179,2.9248 9.3489,2.5358 9.2129,2.1488 C9.0759,1.7628 8.8829,1.4178 8.6329,1.1148 C8.3839,0.8118 8.0799,0.5648 7.7229,0.3748 C7.3669,0.1848 6.9679,0.0888 6.5279,0.0888 L-0.0001,0.0888 L-0.0001,12.7538 L6.0469,12.7538 C6.5819,12.7538 7.0869,12.6798 7.5629,12.5308 C8.0389,12.3818 8.4519,12.1678 8.8019,11.8888 C9.1539,11.6088 9.4329,11.2678 9.6409,10.8628 C9.8489,10.4588 9.9529,10.0008 9.9529,9.4898 C9.9529,8.6808 9.7419,7.9948 9.3199,7.4298 C8.8979,6.8648 8.3229,6.4748 7.5989,6.2608 Z" id="Fill-3" fill="#FFFFFF" mask="url(#mask-2)"></path>
                    </g>
                    <path d="M23.9464,57.9173 C23.6904,58.1793 23.4114,58.3963 23.1084,58.5683 C22.8044,58.7413 22.4894,58.8663 22.1624,58.9433 C21.8354,59.0213 21.5174,59.0593 21.2084,59.0593 C20.6134,59.0593 20.0674,58.9313 19.5674,58.6753 C19.0674,58.4193 18.6364,58.0783 18.2744,57.6493 C17.9114,57.2223 17.6294,56.7293 17.4264,56.1693 C17.2244,55.6103 17.1234,55.0213 17.1234,54.4033 C17.1234,53.8563 17.2094,53.3103 17.3824,52.7623 C17.5544,52.2163 17.8104,51.7223 18.1494,51.2823 C18.4884,50.8423 18.9074,50.4883 19.4064,50.2203 C19.9054,49.9533 20.4884,49.8193 21.1544,49.8193 C21.4514,49.8193 21.7614,49.8523 22.0824,49.9173 C22.4034,49.9833 22.7124,50.0933 23.0094,50.2473 C23.3064,50.4023 23.5804,50.6103 23.8304,50.8723 C24.0804,51.1333 24.2944,51.4543 24.4724,51.8353 L26.0424,50.7823 C25.6264,49.9623 25.0084,49.2963 24.1874,48.7843 C23.3664,48.2733 22.3794,48.0183 21.2264,48.0183 C20.2624,48.0183 19.4004,48.2023 18.6394,48.5713 C17.8784,48.9393 17.2334,49.4243 16.7044,50.0243 C16.1754,50.6253 15.7744,51.3033 15.5004,52.0583 C15.2264,52.8133 15.0904,53.5713 15.0904,54.3323 C15.0904,55.1413 15.2384,55.9353 15.5354,56.7133 C15.8334,57.4923 16.2494,58.1883 16.7844,58.8003 C17.3204,59.4133 17.9554,59.9093 18.6934,60.2903 C19.4304,60.6703 20.2444,60.8603 21.1364,60.8603 C21.6364,60.8603 22.1454,60.7953 22.6614,60.6653 C23.1794,60.5343 23.6704,60.3433 24.1334,60.0933 C24.5974,59.8443 25.0134,59.5383 25.3824,59.1753 C25.7504,58.8133 26.0364,58.3933 26.2384,57.9173 L24.5794,56.9723 C24.4124,57.3413 24.2014,57.6563 23.9464,57.9173" id="Fill-6" fill="#FFFFFF"></path>
                    <mask id="mask-4" fill="white">
                        <use xlink:href="#path-3"></use>
                    </mask>
                    <g id="Clip-9"></g>
                    <polygon id="Fill-8" fill="#FFFFFF" mask="url(#mask-4)" points="41.934 55.955 52.206 55.955 52.206 54.189 41.934 54.189"></polygon>
                    <polygon id="Fill-10" fill="#FFFFFF" mask="url(#mask-4)" points="72.735 55.117 78.389 55.117 78.389 53.458 72.735 53.458 72.735 49.855 79.263 49.855 79.263 48.089 70.737 48.089 70.737 60.754 79.424 60.754 79.424 58.988 72.735 58.988"></polygon>
                    <path d="M92.5163,58.9876 L87.1833,58.9876 C87.4213,58.7026 87.6353,58.3516 87.8253,57.9356 C88.0153,57.5196 88.1873,57.0226 88.3423,56.4456 C88.4963,55.8686 88.6283,55.2036 88.7353,54.4486 C88.8423,53.6936 88.9363,52.8406 89.0203,51.8886 L89.1983,49.8556 L92.5163,49.8556 L92.5163,58.9876 Z M94.5143,48.0896 L87.3443,48.0896 L87.0583,51.6026 C86.9273,53.1616 86.7753,54.4156 86.6033,55.3666 C86.4313,56.3186 86.2283,57.0586 85.9963,57.5876 C85.7653,58.1166 85.5033,58.4766 85.2123,58.6666 C84.9203,58.8566 84.5973,58.9646 84.2403,58.9876 L83.9543,58.9876 L83.9543,63.9996 L85.7913,63.9996 L85.7913,60.7536 L94.5853,60.7536 L94.5853,63.9996 L96.4403,63.9996 L96.4403,58.9876 L94.5143,58.9876 L94.5143,48.0896 Z" id="Fill-11" fill="#FFFFFF" mask="url(#mask-4)"></path>
                    <path d="M109.2834,57.8548 C109.1884,58.0868 109.0574,58.2898 108.8904,58.4618 C108.7244,58.6338 108.5284,58.7718 108.3024,58.8718 C108.0764,58.9728 107.8324,59.0238 107.5714,59.0238 L103.5224,59.0238 L103.5224,55.1528 L107.6964,55.1528 C107.9454,55.1528 108.1774,55.2068 108.3914,55.3128 C108.6054,55.4198 108.7864,55.5628 108.9354,55.7418 C109.0844,55.9198 109.2024,56.1278 109.2924,56.3658 C109.3814,56.6038 109.4264,56.8538 109.4264,57.1148 C109.4264,57.3768 109.3784,57.6238 109.2834,57.8548 Z M103.5224,49.8198 L107.3034,49.8198 C107.7794,49.8198 108.1714,49.9948 108.4804,50.3458 C108.7894,50.6968 108.9444,51.1458 108.9444,51.6928 C108.9444,51.9658 108.8994,52.2158 108.8104,52.4418 C108.7214,52.6678 108.5964,52.8608 108.4364,53.0218 C108.2754,53.1818 108.0914,53.3098 107.8834,53.4048 C107.6754,53.5008 107.4464,53.5468 107.1964,53.5468 L103.5224,53.5468 L103.5224,49.8198 Z M109.1234,54.2608 C109.7054,53.9998 110.1544,53.5988 110.4694,53.0568 C110.7844,52.5158 110.9424,51.9368 110.9424,51.3178 C110.9424,50.9248 110.8734,50.5358 110.7374,50.1488 C110.6004,49.7628 110.4074,49.4178 110.1574,49.1148 C109.9084,48.8118 109.6044,48.5648 109.2474,48.3748 C108.8904,48.1848 108.4924,48.0888 108.0524,48.0888 L101.5244,48.0888 L101.5244,60.7538 L107.5714,60.7538 C108.1064,60.7538 108.6114,60.6798 109.0874,60.5308 C109.5624,60.3818 109.9764,60.1678 110.3264,59.8888 C110.6784,59.6088 110.9574,59.2678 111.1654,58.8628 C111.3734,58.4588 111.4774,58.0008 111.4774,57.4898 C111.4774,56.6808 111.2654,55.9948 110.8444,55.4298 C110.4224,54.8648 109.8474,54.4748 109.1234,54.2608 Z" id="Fill-12" fill="#FFFFFF" mask="url(#mask-4)"></path>
                    <polygon id="Fill-13" fill="#FFFFFF" mask="url(#mask-4)" points="119.4684 57.6678 119.4684 48.0888 117.4524 48.0888 117.4524 60.7538 119.1474 60.7538 125.9434 51.3538 125.9434 60.7538 127.9594 60.7538 127.9594 48.0888 126.3714 48.0888"></polygon>
                    <polygon id="Fill-14" fill="#FFFFFF" mask="url(#mask-4)" points="150.3087 48.0891 148.0077 48.0891 144.6367 53.4581 142.8887 53.4581 142.8887 48.0891 140.7477 48.0891 140.7477 53.4581 139.0177 53.4581 135.6287 48.0891 133.3457 48.0891 137.3057 54.2071 132.9357 60.7541 135.2007 60.7541 138.7497 55.2601 140.7477 55.2601 140.7477 60.7541 142.8887 60.7541 142.8887 55.2601 144.8867 55.2601 148.4357 60.7541 150.7197 60.7541 146.3307 54.2071"></polygon>
                    <polygon id="Fill-15" fill="#FFFFFF" mask="url(#mask-4)" points="157.6935 57.6678 157.6935 48.0888 155.6775 48.0888 155.6775 60.7538 157.3725 60.7538 164.1685 51.3538 164.1685 60.7538 166.1845 60.7538 166.1845 48.0888 164.5965 48.0888"></polygon>
                    <polygon id="Fill-16" fill="#FFFFFF" mask="url(#mask-4)" points="179.0089 55.8308 174.8169 48.0888 172.6769 48.0888 172.6769 60.7538 174.6749 60.7538 174.6749 51.6388 178.4559 58.5418 179.5619 58.5418 183.3249 51.6388 183.3249 60.7538 185.3409 60.7538 185.3409 48.0888 183.2009 48.0888"></polygon>
                    <path d="M200.8595,56.0979 C200.6805,56.6449 200.4195,57.1389 200.0745,57.5779 C199.7295,58.0189 199.3105,58.3719 198.8175,58.6399 C198.3235,58.9079 197.7555,59.0409 197.1135,59.0409 C196.4955,59.0409 195.9365,58.9129 195.4375,58.6579 C194.9375,58.4019 194.5125,58.0599 194.1615,57.6319 C193.8105,57.2039 193.5405,56.7109 193.3495,56.1519 C193.1595,55.5929 193.0645,55.0159 193.0645,54.4209 C193.0645,53.8499 193.1565,53.2889 193.3405,52.7359 C193.5255,52.1829 193.7895,51.6929 194.1345,51.2639 C194.4795,50.8359 194.9015,50.4879 195.4015,50.2209 C195.9005,49.9529 196.4715,49.8199 197.1135,49.8199 C197.7205,49.8199 198.2705,49.9479 198.7635,50.2029 C199.2565,50.4589 199.6785,50.7979 200.0305,51.2199 C200.3805,51.6419 200.6515,52.1289 200.8415,52.6819 C201.0315,53.2349 201.1275,53.8149 201.1275,54.4209 C201.1275,54.9929 201.0375,55.5509 200.8595,56.0979 M201.5105,50.0339 C200.9815,49.4269 200.3445,48.9359 199.6015,48.5619 C198.8585,48.1869 198.0355,47.9999 197.1315,47.9999 C196.2515,47.9999 195.4395,48.1759 194.6965,48.5259 C193.9535,48.8769 193.3115,49.3489 192.7705,49.9439 C192.2295,50.5389 191.8035,51.2229 191.4945,51.9959 C191.1855,52.7679 191.0315,53.5769 191.0315,54.4209 C191.0315,55.2299 191.1765,56.0209 191.4685,56.7939 C191.7595,57.5669 192.1725,58.2539 192.7075,58.8539 C193.2425,59.4549 193.8815,59.9359 194.6255,60.2989 C195.3685,60.6619 196.1925,60.8429 197.0955,60.8429 C197.9635,60.8429 198.7695,60.6669 199.5125,60.3169 C200.2555,59.9659 200.9015,59.4959 201.4485,58.9079 C201.9955,58.3189 202.4205,57.6389 202.7235,56.8649 C203.0265,56.0929 203.1785,55.2839 203.1785,54.4389 C203.1785,53.6429 203.0325,52.8609 202.7415,52.0939 C202.4495,51.3269 202.0395,50.6399 201.5105,50.0339" id="Fill-17" fill="#FFFFFF" mask="url(#mask-4)"></path>
                    <path d="M216.8507,57.9173 C216.5957,58.1793 216.3157,58.3963 216.0127,58.5683 C215.7097,58.7413 215.3937,58.8663 215.0677,58.9433 C214.7397,59.0213 214.4217,59.0593 214.1127,59.0593 C213.5177,59.0593 212.9717,58.9313 212.4717,58.6753 C211.9727,58.4193 211.5407,58.0783 211.1787,57.6493 C210.8157,57.2223 210.5337,56.7293 210.3307,56.1693 C210.1287,55.6103 210.0277,55.0213 210.0277,54.4033 C210.0277,53.8563 210.1147,53.3103 210.2867,52.7623 C210.4587,52.2163 210.7147,51.7223 211.0537,51.2823 C211.3927,50.8423 211.8117,50.4883 212.3117,50.2203 C212.8107,49.9533 213.3927,49.8193 214.0587,49.8193 C214.3567,49.8193 214.6657,49.8523 214.9867,49.9173 C215.3087,49.9833 215.6177,50.0933 215.9147,50.2473 C216.2117,50.4023 216.4857,50.6103 216.7347,50.8723 C216.9847,51.1333 217.1987,51.4543 217.3767,51.8353 L218.9467,50.7823 C218.5307,49.9623 217.9127,49.2963 217.0917,48.7843 C216.2707,48.2733 215.2837,48.0183 214.1307,48.0183 C213.1677,48.0183 212.3057,48.2023 211.5447,48.5713 C210.7827,48.9393 210.1387,49.4243 209.6087,50.0243 C209.0797,50.6253 208.6787,51.3033 208.4047,52.0583 C208.1317,52.8133 207.9947,53.5713 207.9947,54.3323 C207.9947,55.1413 208.1427,55.9353 208.4407,56.7133 C208.7377,57.4923 209.1547,58.1883 209.6887,58.8003 C210.2247,59.4133 210.8597,59.9093 211.5977,60.2903 C212.3347,60.6703 213.1497,60.8603 214.0417,60.8603 C214.5407,60.8603 215.0497,60.7953 215.5667,60.6653 C216.0837,60.5343 216.5747,60.3433 217.0377,60.0933 C217.5017,59.8443 217.9177,59.5383 218.2867,59.1753 C218.6557,58.8133 218.9407,58.3933 219.1427,57.9173 L217.4847,56.9723 C217.3177,57.3413 217.1067,57.6563 216.8507,57.9173" id="Fill-18" fill="#FFFFFF" mask="url(#mask-4)"></path>
                    <polygon id="Fill-19" fill="#FFFFFF" mask="url(#mask-4)" points="223.3883 49.8553 227.6153 49.8553 227.6153 60.7533 229.6313 60.7533 229.6313 49.8553 233.8413 49.8553 233.8413 48.0893 223.3883 48.0893"></polygon>
                    <path d="M245.4171,58.3904 C245.0251,58.8124 244.4361,59.0234 243.6511,59.0234 L241.1541,59.0234 L241.1541,54.3324 L243.6511,54.3324 C244.4131,54.3324 244.9951,54.5464 245.3991,54.9744 C245.8041,55.4024 246.0061,55.9734 246.0061,56.6864 C246.0061,57.4004 245.8101,57.9684 245.4171,58.3904 M246.8091,53.6994 C246.4281,53.3604 245.9731,53.1014 245.4441,52.9234 C244.9151,52.7444 244.3411,52.6554 243.7231,52.6554 L241.1541,52.6554 L241.1541,48.0894 L239.1391,48.0894 L239.1391,60.7534 L243.7581,60.7534 C244.3651,60.7534 244.9271,60.6644 245.4441,60.4864 C245.9611,60.3074 246.4131,60.0494 246.8001,59.7104 C247.1861,59.3714 247.4891,58.9494 247.7091,58.4434 C247.9291,57.9384 248.0401,57.3524 248.0401,56.6864 C248.0401,56.0334 247.9291,55.4554 247.7091,54.9564 C247.4891,54.4564 247.1891,54.0374 246.8091,53.6994" id="Fill-20" fill="#FFFFFF" mask="url(#mask-4)"></path>
                    <polygon id="Fill-21" fill="#FFFFFF" mask="url(#mask-4)" points="253.176 60.754 254.8 60.754 254.8 58.471 253.176 58.471"></polygon>
                    <path d="M267.9811,53.1551 C267.8861,53.4401 267.7551,53.6901 267.5891,53.9041 C267.4221,54.1181 267.2231,54.2851 266.9911,54.4041 C266.7591,54.5231 266.5011,54.5821 266.2151,54.5821 L262.9151,54.5821 L262.9151,49.8551 L266.1081,49.8551 C266.3701,49.8551 266.6231,49.9121 266.8661,50.0251 C267.1101,50.1381 267.3271,50.2981 267.5171,50.5061 C267.7071,50.7141 267.8561,50.9611 267.9631,51.2461 C268.0701,51.5311 268.1241,51.8531 268.1241,52.2101 C268.1241,52.5551 268.0761,52.8691 267.9811,53.1551 M269.0511,49.3831 C268.7071,48.9961 268.2931,48.6841 267.8121,48.4461 C267.3301,48.2081 266.8041,48.0891 266.2331,48.0891 L260.9181,48.0891 L260.9181,60.7541 L262.9151,60.7541 L262.9151,56.3481 L266.3401,56.3481 C266.9111,56.3481 267.4311,56.2321 267.9011,56.0001 C268.3701,55.7681 268.7721,55.4591 269.1051,55.0721 C269.4381,54.6861 269.6961,54.2461 269.8801,53.7531 C270.0651,53.2591 270.1571,52.7451 270.1571,52.2101 C270.1571,51.6981 270.0591,51.1961 269.8631,50.7021 C269.6671,50.2091 269.3961,49.7691 269.0511,49.3831" id="Fill-22" fill="#FFFFFF" mask="url(#mask-4)"></path>
                    <path d="M279.9503,55.4202 L276.5613,48.0892 L274.4033,48.0892 L279.0223,57.5252 C278.7733,58.1552 278.5053,58.5812 278.2203,58.8002 C277.9343,59.0212 277.6013,59.1302 277.2213,59.1302 C276.9953,59.1302 276.7633,59.1012 276.5253,59.0412 C276.2873,58.9822 276.0853,58.9162 275.9193,58.8452 L275.7583,60.5222 C275.9723,60.6522 276.2373,60.7442 276.5523,60.7982 C276.8673,60.8522 277.1433,60.8782 277.3813,60.8782 C277.7623,60.8782 278.1043,60.8212 278.4073,60.7092 C278.7103,60.5962 278.9963,60.4122 279.2633,60.1562 C279.5313,59.9002 279.7863,59.5732 280.0303,59.1752 C280.2743,58.7772 280.5273,58.2922 280.7883,57.7212 L285.2483,48.0892 L283.1433,48.0892 L279.9503,55.4202 Z" id="Fill-23" fill="#FFFFFF" mask="url(#mask-4)"></path>
                    <path d="M299.0719,56.972 C298.9049,57.341 298.6939,57.656 298.4389,57.917 C298.1829,58.179 297.9039,58.397 297.5999,58.569 C297.2969,58.741 296.9819,58.866 296.6549,58.943 C296.3269,59.021 296.0089,59.059 295.6999,59.059 C295.1059,59.059 294.5589,58.931 294.0589,58.676 C293.5599,58.42 293.1289,58.078 292.7659,57.65 C292.4039,57.222 292.1209,56.729 291.9189,56.17 C291.7169,55.611 291.6149,55.022 291.6149,54.404 C291.6149,53.857 291.7019,53.31 291.8749,52.763 C292.0469,52.216 292.3019,51.722 292.6409,51.282 C292.9799,50.842 293.3999,50.488 293.8989,50.221 C294.3979,49.953 294.9809,49.82 295.6469,49.82 C295.9439,49.82 296.2539,49.852 296.5739,49.917 C296.8959,49.983 297.2049,50.093 297.5019,50.247 C297.7989,50.402 298.0729,50.611 298.3219,50.872 C298.5719,51.134 298.7859,51.454 298.9649,51.835 L300.5339,50.783 C300.1179,49.962 299.4999,49.296 298.6789,48.784 C297.8589,48.274 296.8709,48.018 295.7179,48.018 C294.7549,48.018 293.8929,48.202 293.1319,48.571 C292.3709,48.939 291.7259,49.424 291.1969,50.025 C290.6679,50.625 290.2659,51.303 289.9919,52.058 C289.7189,52.813 289.5819,53.572 289.5819,54.332 C289.5819,55.141 289.7309,55.935 290.0279,56.714 C290.3249,57.493 290.7419,58.188 291.2769,58.801 C291.8119,59.413 292.4479,59.91 293.1849,60.29 C293.9229,60.671 294.7379,60.861 295.6289,60.861 C296.1289,60.861 296.6369,60.795 297.1539,60.665 C297.6719,60.534 298.1619,60.344 298.6259,60.094 C299.0899,59.844 299.5059,59.538 299.8739,59.175 C300.2429,58.813 300.5289,58.393 300.7309,57.917 L299.0719,56.972 Z" id="Fill-24" fill="#FFFFFF" mask="url(#mask-4)"></path>
                    <path d="M33.6496,48.4192 C33.1686,48.6392 32.7546,48.9312 32.4096,49.2932 C32.0646,49.6562 31.7946,50.0752 31.5986,50.5502 C31.4016,51.0262 31.3036,51.5142 31.3036,52.0132 C31.3036,52.4412 31.3636,52.8452 31.4826,53.2262 C31.6016,53.6072 31.7706,53.9582 31.9906,54.2792 C32.2116,54.6002 32.4726,54.8822 32.7756,55.1262 C33.0786,55.3702 33.4086,55.5632 33.7656,55.7062 L30.6616,60.7532 L32.9276,60.7532 L35.8166,55.9552 L36.6746,55.9552 L36.6746,54.1892 L35.3176,54.1892 C35.0316,54.1892 34.7676,54.1332 34.5236,54.0202 C34.2796,53.9072 34.0686,53.7522 33.8906,53.5562 C33.7116,53.3602 33.5756,53.1312 33.4806,52.8692 C33.3846,52.6082 33.3376,52.3222 33.3376,52.0132 C33.3376,51.7042 33.3936,51.4162 33.5066,51.1482 C33.6196,50.8812 33.7716,50.6482 33.9616,50.4522 C34.1516,50.2562 34.3726,50.1052 34.6216,49.9982 C34.8716,49.8912 35.1326,49.8372 35.4066,49.8372 L38.2956,49.8372 L38.2956,60.7532 L40.3126,60.7532 L40.3126,48.0892 L35.2286,48.0892 C34.6576,48.0892 34.1316,48.1992 33.6496,48.4192" id="Fill-25" fill="#FFFFFF" mask="url(#mask-4)"></path>
                    <polygon id="Fill-26" fill="#FFFFFF" mask="url(#mask-4)" points="53.828 60.754 55.826 60.754 55.826 48.089 53.828 48.089"></polygon>
                    <polygon id="Fill-27" fill="#FFFFFF" mask="url(#mask-4)" points="62.2111 54.1805 57.4471 54.1805 57.4471 55.9645 62.2111 55.9645 62.2111 60.7535 64.2271 60.7535 64.2271 48.0895 62.2111 48.0895"></polygon>
                </g>
            </g>
        </g>
    </g>
</svg>