<?xml version="1.0" encoding="UTF-8"?>
<svg width="208px" height="16px" viewBox="0 0 208 16" version="1.1" xmlns="http://www.w3.org/2000/svg" xmlns:xlink="http://www.w3.org/1999/xlink">
    <title>img__logo</title>
    <desc>Created with Sketch.</desc>
    <g id="Symbols" stroke="none" stroke-width="1" fill="none" fill-rule="evenodd">
        <g id="Components-/-Header-360-/-Buy-Logo" transform="translate(0.000000, -1.000000)">
            <g id="img__logo" transform="translate(0.000000, 1.000000)">
                <path d="M7.0101,-0.0002 L0.0001,6.8128 L0.0001,15.9998 L9.5371,15.9998 L10.8001,15.9998 L10.8001,14.7398 L10.8001,7.0208 L9.5371,5.7828 L9.5371,14.7398 L1.2631,14.7398 L1.2631,7.3408 L7.0101,1.7668 L12.7571,7.3408 L12.7571,15.9998 L14.0211,15.9998 L14.0211,6.8128 L7.0101,-0.0002 Z M9.5373,0.2536 L9.5373,1.1386 L10.8003,2.3766 L10.8003,0.2536 L9.5373,0.2536 Z" id="Fill-1" fill="_THEME_COLOR_"></path>
                <path d="M27.1498,10.756 C27.1498,10.595 27.1218,10.441 27.0668,10.294 C27.0118,10.148 26.9388,10.019 26.8468,9.909 C26.7548,9.799 26.6428,9.711 26.5108,9.645 C26.3788,9.579 26.2348,9.546 26.0808,9.546 L23.5038,9.546 L23.5038,11.933 L26.0038,11.933 C26.1658,11.933 26.3158,11.902 26.4558,11.839 C26.5948,11.777 26.7158,11.693 26.8188,11.587 C26.9218,11.48 27.0028,11.356 27.0618,11.213 C27.1198,11.069 27.1498,10.918 27.1498,10.756 Z M23.5038,6.257 L23.5038,8.556 L25.7728,8.556 C25.9268,8.556 26.0678,8.527 26.1968,8.468 C26.3248,8.409 26.4388,8.331 26.5388,8.232 C26.6368,8.132 26.7148,8.013 26.7698,7.874 C26.8248,7.735 26.8528,7.581 26.8528,7.412 C26.8528,7.075 26.7568,6.798 26.5658,6.582 C26.3748,6.365 26.1318,6.257 25.8388,6.257 L23.5038,6.257 Z M28.4168,10.987 C28.4168,11.302 28.3528,11.585 28.2238,11.834 C28.0948,12.084 27.9228,12.294 27.7058,12.466 C27.4898,12.639 27.2338,12.771 26.9408,12.862 C26.6468,12.954 26.3348,13 26.0038,13 L22.2698,13 L22.2698,5.19 L26.3008,5.19 C26.5728,5.19 26.8188,5.249 27.0398,5.366 C27.2598,5.484 27.4468,5.635 27.6018,5.822 C27.7558,6.009 27.8748,6.222 27.9598,6.461 C28.0438,6.699 28.0858,6.939 28.0858,7.181 C28.0858,7.563 27.9888,7.92 27.7938,8.254 C27.5998,8.588 27.3218,8.835 26.9628,8.996 C27.4098,9.128 27.7648,9.368 28.0258,9.716 C28.2858,10.065 28.4168,10.488 28.4168,10.987 Z" id="Fill-3" fill="_THEME_COLOR_"></path>
                <path d="M31.5892,9.0402 C31.5892,8.5712 31.6732,8.1032 31.8422,7.6372 C32.0112,7.1722 32.2592,6.7542 32.5862,6.3832 C32.9132,6.0132 33.3112,5.7142 33.7812,5.4872 C34.2512,5.2602 34.7842,5.1462 35.3792,5.1462 C36.0912,5.1462 36.7002,5.3042 37.2072,5.6192 C37.7142,5.9342 38.0962,6.3452 38.3532,6.8512 L37.3832,7.5002 C37.2742,7.2652 37.1412,7.0672 36.9872,6.9062 C36.8332,6.7452 36.6642,6.6162 36.4802,6.5212 C36.2972,6.4262 36.1062,6.3582 35.9072,6.3172 C35.7092,6.2772 35.5182,6.2572 35.3352,6.2572 C34.9232,6.2572 34.5632,6.3392 34.2552,6.5042 C33.9462,6.6692 33.6882,6.8882 33.4782,7.1592 C33.2692,7.4302 33.1112,7.7352 33.0052,8.0722 C32.8982,8.4092 32.8452,8.7472 32.8452,9.0842 C32.8452,9.4652 32.9072,9.8282 33.0322,10.1732 C33.1572,10.5182 33.3312,10.8222 33.5552,11.0862 C33.7792,11.3502 34.0462,11.5612 34.3542,11.7182 C34.6632,11.8762 35.0002,11.9552 35.3672,11.9552 C35.5582,11.9552 35.7552,11.9312 35.9572,11.8832 C36.1592,11.8362 36.3542,11.7592 36.5412,11.6522 C36.7282,11.5462 36.9012,11.4122 37.0582,11.2512 C37.2162,11.0902 37.3472,10.8952 37.4502,10.6682 L38.4742,11.2512 C38.3492,11.5442 38.1732,11.8032 37.9452,12.0262 C37.7172,12.2502 37.4612,12.4392 37.1742,12.5932 C36.8882,12.7472 36.5852,12.8642 36.2652,12.9452 C35.9462,13.0252 35.6322,13.0662 35.3232,13.0662 C34.7732,13.0662 34.2702,12.9492 33.8142,12.7142 C33.3592,12.4792 32.9662,12.1732 32.6352,11.7952 C32.3052,11.4182 32.0482,10.9892 31.8642,10.5082 C31.6812,10.0282 31.5892,9.5392 31.5892,9.0402" id="Fill-5" fill="_THEME_COLOR_"></path>
                <polygon id="Fill-7" fill="_THEME_COLOR_" points="48.168 10.041 54.512 10.041 54.512 8.952 48.168 8.952"></polygon>
                <polygon id="Fill-9" fill="#5E6F72" points="71.3217 11.9108 71.3217 12.9998 65.9567 12.9998 65.9567 5.1898 71.2217 5.1898 71.2217 6.2788 67.1907 6.2788 67.1907 8.5008 70.6827 8.5008 70.6827 9.5238 67.1907 9.5238 67.1907 11.9108"></polygon>
                <path d="M79.4076,11.9108 L79.4076,6.2788 L77.3586,6.2788 L77.2486,7.5328 C77.1966,8.1198 77.1376,8.6458 77.0726,9.1118 C77.0056,9.5778 76.9256,9.9878 76.8296,10.3438 C76.7346,10.6998 76.6276,11.0058 76.5106,11.2618 C76.3926,11.5188 76.2606,11.7348 76.1136,11.9108 L79.4076,11.9108 Z M74.1196,11.9108 L74.2956,11.9108 C74.5156,11.8968 74.7166,11.8298 74.8966,11.7128 C75.0756,11.5958 75.2376,11.3738 75.3816,11.0478 C75.5246,10.7218 75.6486,10.2648 75.7556,9.6778 C75.8626,9.0918 75.9556,8.3178 76.0366,7.3568 L76.2126,5.1898 L80.6406,5.1898 L80.6406,11.9108 L81.8306,11.9108 L81.8306,15.0018 L80.6856,15.0018 L80.6856,12.9998 L75.2546,12.9998 L75.2546,15.0018 L74.1196,15.0018 L74.1196,11.9108 Z" id="Fill-10" fill="#5E6F72"></path>
                <path d="M89.851,10.756 C89.851,10.595 89.823,10.441 89.768,10.294 C89.713,10.148 89.64,10.019 89.548,9.909 C89.456,9.799 89.344,9.711 89.212,9.645 C89.08,9.579 88.936,9.546 88.782,9.546 L86.205,9.546 L86.205,11.933 L88.705,11.933 C88.867,11.933 89.017,11.902 89.157,11.839 C89.296,11.777 89.417,11.693 89.52,11.587 C89.623,11.48 89.704,11.356 89.763,11.213 C89.821,11.069 89.851,10.918 89.851,10.756 Z M86.205,6.257 L86.205,8.556 L88.474,8.556 C88.628,8.556 88.769,8.527 88.898,8.468 C89.026,8.409 89.14,8.331 89.24,8.232 C89.338,8.132 89.416,8.013 89.471,7.874 C89.526,7.735 89.553,7.581 89.553,7.412 C89.553,7.075 89.458,6.798 89.267,6.582 C89.076,6.365 88.833,6.257 88.54,6.257 L86.205,6.257 Z M91.118,10.987 C91.118,11.302 91.054,11.585 90.925,11.834 C90.796,12.084 90.624,12.294 90.407,12.466 C90.19,12.639 89.935,12.771 89.642,12.862 C89.348,12.954 89.036,13 88.705,13 L84.971,13 L84.971,5.19 L89.002,5.19 C89.274,5.19 89.52,5.249 89.741,5.366 C89.961,5.484 90.148,5.635 90.303,5.822 C90.457,6.009 90.576,6.222 90.661,6.461 C90.745,6.699 90.787,6.939 90.787,7.181 C90.787,7.563 90.69,7.92 90.495,8.254 C90.301,8.588 90.023,8.835 89.664,8.996 C90.111,9.128 90.466,9.368 90.727,9.716 C90.987,10.065 91.118,10.488 91.118,10.987 Z" id="Fill-11" fill="#5E6F72"></path>
                <polygon id="Fill-12" fill="#5E6F72" points="96.0531 11.0968 100.3161 5.1898 101.2971 5.1898 101.2971 12.9998 100.0521 12.9998 100.0521 7.2028 95.8551 12.9998 94.8081 12.9998 94.8081 5.1898 96.0531 5.1898"></polygon>
                <polygon id="Fill-13" fill="#5E6F72" points="107.0692 8.9631 104.6232 5.1901 106.0332 5.1901 108.1272 8.5011 109.1952 8.5011 109.1952 5.1901 110.5172 5.1901 110.5172 8.5011 111.5972 8.5011 113.6792 5.1901 115.1002 5.1901 112.6432 8.9631 115.3532 13.0001 113.9432 13.0001 111.7512 9.6121 110.5172 9.6121 110.5172 13.0001 109.1952 13.0001 109.1952 9.6121 107.9612 9.6121 105.7692 13.0001 104.3702 13.0001"></polygon>
                <polygon id="Fill-14" fill="#5E6F72" points="119.6605 11.0968 123.9245 5.1898 124.9045 5.1898 124.9045 12.9998 123.6595 12.9998 123.6595 7.2028 119.4625 12.9998 118.4155 12.9998 118.4155 5.1898 119.6605 5.1898"></polygon>
                <polygon id="Fill-15" fill="#5E6F72" points="135.4911 13.0002 135.4911 7.3792 133.1661 11.6362 132.4841 11.6362 130.1481 7.3792 130.1481 13.0002 128.9141 13.0002 128.9141 5.1902 130.2361 5.1902 132.8251 9.9642 135.4141 5.1902 136.7361 5.1902 136.7361 13.0002"></polygon>
                <path d="M141.5057,9.0949 C141.5057,9.4619 141.5647,9.8179 141.6817,10.1619 C141.7987,10.5069 141.9667,10.8109 142.1827,11.0749 C142.3997,11.3389 142.6627,11.5499 142.9707,11.7079 C143.2787,11.8659 143.6247,11.9439 144.0057,11.9439 C144.4027,11.9439 144.7537,11.8619 145.0587,11.6969 C145.3627,11.5319 145.6217,11.3139 145.8347,11.0419 C146.0477,10.7709 146.2097,10.4669 146.3197,10.1289 C146.4297,9.7919 146.4847,9.4469 146.4847,9.0949 C146.4847,8.7209 146.4257,8.3639 146.3087,8.0229 C146.1917,7.6809 146.0247,7.3809 145.8077,7.1209 C145.5907,6.8609 145.3297,6.6519 145.0257,6.4929 C144.7207,6.3359 144.3807,6.2569 144.0057,6.2569 C143.6097,6.2569 143.2567,6.3399 142.9487,6.5049 C142.6407,6.6699 142.3797,6.8839 142.1667,7.1479 C141.9537,7.4119 141.7907,7.7149 141.6767,8.0549 C141.5627,8.3969 141.5057,8.7429 141.5057,9.0949 M143.9957,13.0549 C143.4377,13.0549 142.9287,12.9439 142.4697,12.7199 C142.0107,12.4959 141.6157,12.1989 141.2857,11.8289 C140.9547,11.4579 140.6997,11.0349 140.5197,10.5579 C140.3397,10.0809 140.2497,9.5939 140.2497,9.0949 C140.2497,8.5739 140.3447,8.0759 140.5357,7.5989 C140.7267,7.1219 140.9897,6.7009 141.3237,6.3339 C141.6577,5.9679 142.0547,5.6759 142.5137,5.4599 C142.9727,5.2429 143.4737,5.1349 144.0177,5.1349 C144.5757,5.1349 145.0847,5.2509 145.5437,5.4819 C146.0017,5.7129 146.3957,6.0149 146.7217,6.3889 C147.0487,6.7629 147.3017,7.1869 147.4817,7.6589 C147.6617,8.1329 147.7517,8.6149 147.7517,9.1059 C147.7517,9.6269 147.6577,10.1259 147.4707,10.6019 C147.2837,11.0789 147.0217,11.4989 146.6837,11.8619 C146.3457,12.2249 145.9467,12.5139 145.4877,12.7309 C145.0287,12.9469 144.5317,13.0549 143.9957,13.0549" id="Fill-16" fill="#5E6F72"></path>
                <path d="M150.7264,9.0402 C150.7264,8.5712 150.8104,8.1032 150.9794,7.6372 C151.1484,7.1722 151.3964,6.7542 151.7234,6.3832 C152.0504,6.0132 152.4484,5.7142 152.9184,5.4872 C153.3884,5.2602 153.9214,5.1462 154.5164,5.1462 C155.2284,5.1462 155.8384,5.3042 156.3454,5.6192 C156.8514,5.9342 157.2334,6.3452 157.4904,6.8512 L156.5204,7.5002 C156.4114,7.2652 156.2784,7.0672 156.1244,6.9062 C155.9704,6.7452 155.8014,6.6162 155.6184,6.5212 C155.4344,6.4262 155.2434,6.3582 155.0444,6.3172 C154.8464,6.2772 154.6554,6.2572 154.4724,6.2572 C154.0604,6.2572 153.7014,6.3392 153.3924,6.5042 C153.0834,6.6692 152.8254,6.8882 152.6154,7.1592 C152.4064,7.4302 152.2484,7.7352 152.1424,8.0722 C152.0354,8.4092 151.9824,8.7472 151.9824,9.0842 C151.9824,9.4652 152.0444,9.8282 152.1694,10.1732 C152.2944,10.5182 152.4694,10.8222 152.6924,11.0862 C152.9164,11.3502 153.1834,11.5612 153.4914,11.7182 C153.8004,11.8762 154.1384,11.9552 154.5054,11.9552 C154.6964,11.9552 154.8924,11.9312 155.0944,11.8832 C155.2964,11.8362 155.4914,11.7592 155.6784,11.6522 C155.8654,11.5462 156.0384,11.4122 156.1964,11.2512 C156.3534,11.0902 156.4844,10.8952 156.5874,10.6682 L157.6114,11.2512 C157.4864,11.5442 157.3104,11.8032 157.0824,12.0262 C156.8554,12.2502 156.5984,12.4392 156.3114,12.5932 C156.0254,12.7472 155.7224,12.8642 155.4024,12.9452 C155.0834,13.0252 154.7694,13.0662 154.4614,13.0662 C153.9104,13.0662 153.4074,12.9492 152.9524,12.7142 C152.4964,12.4792 152.1034,12.1732 151.7724,11.7952 C151.4424,11.4182 151.1854,10.9892 151.0014,10.5082 C150.8184,10.0282 150.7264,9.5392 150.7264,9.0402" id="Fill-17" fill="#5E6F72"></path>
                <polygon id="Fill-18" fill="#5E6F72" points="166.6893 6.279 164.0893 6.279 164.0893 13 162.8443 13 162.8443 6.279 160.2333 6.279 160.2333 5.19 166.6893 5.19"></polygon>
                <path d="M171.2059,11.9333 L172.7479,11.9333 C173.2329,11.9333 173.5969,11.8033 173.8389,11.5423 C174.0809,11.2823 174.2019,10.9323 174.2019,10.4923 C174.2019,10.0523 174.0779,9.7003 173.8279,9.4363 C173.5779,9.1723 173.2179,9.0403 172.7479,9.0403 L171.2059,9.0403 L171.2059,11.9333 Z M169.9609,5.1903 L171.2059,5.1903 L171.2059,8.0063 L172.7919,8.0063 C173.1739,8.0063 173.5279,8.0613 173.8549,8.1713 C174.1819,8.2813 174.4629,8.4403 174.6979,8.6493 C174.9329,8.8583 175.1189,9.1173 175.2539,9.4253 C175.3899,9.7333 175.4579,10.0893 175.4579,10.4923 C175.4579,10.9033 175.3899,11.2643 175.2539,11.5753 C175.1189,11.8873 174.9309,12.1473 174.6919,12.3563 C174.4539,12.5653 174.1749,12.7253 173.8549,12.8353 C173.5359,12.9453 173.1889,13.0003 172.8139,13.0003 L169.9609,13.0003 L169.9609,5.1903 Z" id="Fill-19" fill="#5E6F72"></path>
                <polygon id="Fill-20" fill="#5E6F72" points="178.63 13 179.633 13 179.633 11.592 178.63 11.592"></polygon>
                <path d="M184.6454,9.194 L186.6834,9.194 C186.8594,9.194 187.0194,9.157 187.1624,9.084 C187.3064,9.011 187.4284,8.908 187.5314,8.776 C187.6344,8.644 187.7154,8.49 187.7734,8.314 C187.8334,8.138 187.8624,7.944 187.8624,7.731 C187.8624,7.511 187.8294,7.313 187.7634,7.137 C187.6964,6.961 187.6044,6.809 187.4874,6.68 C187.3704,6.552 187.2354,6.453 187.0854,6.383 C186.9354,6.314 186.7784,6.279 186.6174,6.279 L184.6454,6.279 L184.6454,9.194 Z M183.4114,13 L183.4114,5.19 L186.6944,5.19 C187.0464,5.19 187.3724,5.263 187.6694,5.41 C187.9664,5.557 188.2224,5.749 188.4354,5.987 C188.6474,6.226 188.8154,6.497 188.9364,6.801 C189.0574,7.106 189.1184,7.416 189.1184,7.731 C189.1184,8.061 189.0614,8.378 188.9474,8.683 C188.8334,8.987 188.6734,9.258 188.4684,9.497 C188.2624,9.735 188.0144,9.925 187.7244,10.069 C187.4344,10.212 187.1124,10.283 186.7604,10.283 L184.6454,10.283 L184.6454,13 L183.4114,13 Z" id="Fill-21" fill="#5E6F72"></path>
                <path d="M193.58,13.0768 C193.433,13.0768 193.262,13.0608 193.068,13.0278 C192.873,12.9938 192.709,12.9378 192.578,12.8568 L192.676,11.8228 C192.779,11.8668 192.904,11.9078 193.051,11.9438 C193.198,11.9808 193.341,11.9988 193.481,11.9988 C193.716,11.9988 193.921,11.9308 194.098,11.7958 C194.274,11.6598 194.439,11.3978 194.593,11.0088 L191.74,5.1898 L193.073,5.1898 L195.166,9.7108 L197.138,5.1898 L198.438,5.1898 L195.684,11.1298 C195.522,11.4818 195.366,11.7808 195.216,12.0268 C195.065,12.2718 194.907,12.4738 194.742,12.6318 C194.577,12.7888 194.401,12.9028 194.213,12.9728 C194.026,13.0418 193.815,13.0768 193.58,13.0768" id="Fill-22" fill="#5E6F72"></path>
                <path d="M201.1146,9.0402 C201.1146,8.5712 201.1986,8.1032 201.3676,7.6372 C201.5366,7.1722 201.7846,6.7542 202.1116,6.3832 C202.4386,6.0132 202.8366,5.7142 203.3066,5.4872 C203.7766,5.2602 204.3096,5.1462 204.9046,5.1462 C205.6166,5.1462 206.2266,5.3042 206.7336,5.6192 C207.2396,5.9342 207.6216,6.3452 207.8786,6.8512 L206.9086,7.5002 C206.7996,7.2652 206.6666,7.0672 206.5126,6.9062 C206.3586,6.7452 206.1896,6.6162 206.0066,6.5212 C205.8226,6.4262 205.6316,6.3582 205.4326,6.3172 C205.2346,6.2772 205.0436,6.2572 204.8606,6.2572 C204.4486,6.2572 204.0896,6.3392 203.7806,6.5042 C203.4726,6.6692 203.2136,6.8882 203.0046,7.1592 C202.7946,7.4302 202.6366,7.7352 202.5306,8.0722 C202.4236,8.4092 202.3706,8.7472 202.3706,9.0842 C202.3706,9.4652 202.4326,9.8282 202.5576,10.1732 C202.6826,10.5182 202.8576,10.8222 203.0806,11.0862 C203.3046,11.3502 203.5716,11.5612 203.8796,11.7182 C204.1886,11.8762 204.5266,11.9552 204.8936,11.9552 C205.0846,11.9552 205.2806,11.9312 205.4826,11.8832 C205.6846,11.8362 205.8796,11.7592 206.0666,11.6522 C206.2536,11.5462 206.4266,11.4122 206.5846,11.2512 C206.7416,11.0902 206.8726,10.8952 206.9756,10.6682 L207.9996,11.2512 C207.8746,11.5442 207.6986,11.8032 207.4706,12.0262 C207.2436,12.2502 206.9866,12.4392 206.6996,12.5932 C206.4136,12.7472 206.1106,12.8642 205.7916,12.9452 C205.4716,13.0252 205.1576,13.0662 204.8496,13.0662 C204.2986,13.0662 203.7956,12.9492 203.3406,12.7142 C202.8846,12.4792 202.4916,12.1732 202.1616,11.7952 C201.8306,11.4182 201.5736,10.9892 201.3896,10.5082 C201.2066,10.0282 201.1146,9.5392 201.1146,9.0402" id="Fill-23" fill="#5E6F72"></path>
                <path d="M44.0267,5.1901 C43.6737,5.1901 43.3487,5.2581 43.0517,5.3941 C42.7547,5.5291 42.4987,5.7091 42.2857,5.9331 C42.0727,6.1561 41.9057,6.4151 41.7847,6.7081 C41.6637,7.0021 41.6027,7.3021 41.6027,7.6101 C41.6027,7.8741 41.6397,8.1231 41.7137,8.3581 C41.7867,8.5931 41.8907,8.8091 42.0267,9.0071 C42.1627,9.2051 42.3247,9.3791 42.5117,9.5291 C42.6987,9.6801 42.9027,9.7991 43.1227,9.8871 L41.2067,13.0001 L42.6057,13.0001 L44.3897,10.0411 L44.9197,10.0411 L44.9197,8.9521 L44.0817,8.9521 C43.9047,8.9521 43.7417,8.9171 43.5907,8.8471 C43.4407,8.7781 43.3107,8.6831 43.2007,8.5621 C43.0897,8.4401 43.0057,8.2991 42.9467,8.1381 C42.8877,7.9771 42.8587,7.8011 42.8587,7.6101 C42.8587,7.4191 42.8937,7.2411 42.9637,7.0761 C43.0327,6.9121 43.1267,6.7691 43.2447,6.6481 C43.3617,6.5261 43.4977,6.4331 43.6517,6.3671 C43.8057,6.3011 43.9677,6.2681 44.1367,6.2681 L45.9217,6.2681 L45.9217,13.0001 L47.1667,13.0001 L47.1667,5.1901 L44.0267,5.1901 Z" id="Fill-24" fill="_THEME_COLOR_"></path>
                <polygon id="Fill-25" fill="#5E6F72" points="55.513 13 56.747 13 56.747 5.19 55.513 5.19"></polygon>
                <polygon id="Fill-26" fill="#5E6F72" points="60.6913 5.1901 60.6913 8.9461 57.7493 8.9461 57.7493 10.0461 60.6913 10.0461 60.6913 13.0001 61.9363 13.0001 61.9363 5.1901"></polygon>
            </g>
        </g>
    </g>
</svg>
